<?xml version="1.0" encoding="utf-8"?>
<!-- Generator: Adobe Illustrator 23.0.1, SVG Export Plug-In . SVG Version: 6.00 Build 0)  -->
<svg version="1.1" xmlns="http://www.w3.org/2000/svg" xmlns:xlink="http://www.w3.org/1999/xlink" x="0px" y="0px"
	 viewBox="0 0 116.3 105.3" style="enable-background:new 0 0 116.3 105.3;" xml:space="preserve">
<style type="text/css">
	.st0{fill:#FF6A71;}
	.st1{fill:url(#SVGID_1_);}
	.st2{fill:#511F14;}
	.st3{fill:#6B2E26;}
	.st4{opacity:0.15;fill:#FFFFFF;}
	.st5{fill:#FFE4B6;}
	.st6{opacity:0.4;fill:#FFE4B6;}
	.st7{fill:#FFB8BD;}
	.st8{opacity:0.2;fill:#FFFFFF;}
	.st9{fill:#3B8D14;}
	.st10{opacity:0.3;}
	.st11{fill:#D50506;}
	.st12{fill:#FF9E0C;}
	.st13{opacity:0.2;}
	.st14{opacity:0.4;fill:#FF9E0C;}
	.st15{opacity:0.2;fill:#FFF7EF;}
	.st16{opacity:0.6;fill:#FF9FA6;}
	.st17{fill:#FF9FA6;}
	.st18{opacity:0.7;}
</style>
<g id="Layer_60">
</g>
<g id="Layer_4">
</g>
<g id="Layer_6">
	<path class="st0" d="M112.7,69.3c-0.9,30.3-24.2,35.1-54,35.1c-29.8,0-52.8-4.3-54-35.1c-1.4-35.1,24.2-35,54-35
		C88.5,34.3,113.9,26.4,112.7,69.3z"/>
	<linearGradient id="SVGID_1_" gradientUnits="userSpaceOnUse" x1="36.8933" y1="63.7453" x2="114.496" y2="71.0662">
		<stop  offset="0" style="stop-color:#FA3840"/>
		<stop  offset="1" style="stop-color:#D30F13"/>
	</linearGradient>
	<path class="st1" d="M4.6,65.3c3.5,4.2,7.1-10.4,8.5-4.7c3.5,13.8-4.8,21.9,7.5,23.6c8.2,1.2,9.8-8.9,10.1-12.8
		C31.2,67.5,37,73,41,72.8c8.7-0.3-1.6,19.1,12.7,14.9c5.1-1.5,5.9-2.7,6.1-9.9c0.3-7.2,7-4.6,6.5,1.3c-0.5,5.9,0.8,19.4-12.8,20.3
		c0,0,19.3,5.8,35,0c9.1-3.4,17-5,20.8-14.1c2.2-5.3,3.9-12.1,3.3-24c-0.1-2.6-1.3-6.7-1.5-9.7C108.1,11.5-11.8,45.3,4.6,65.3z"/>
	<path class="st2" d="M58.3,7.2C20,6.3,2.1,21.8,0.4,36.9c-1.3,11.6-0.2,30,3.3,29.2c3.4-0.8,6.4-11.6,8.9-11
		c2.5,0.7,3.4,14.1,3.3,17c-0.2,3-1.5,8.5,2.8,9.2c4.3,0.7,6.4-3.3,5.9-7c-0.5-3.8,1-13.3,4.3-12.6c3.3,0.7,2.6,4.3,5,5.8
		c6.6,4.3,12.7,0.2,12.7,8.3c0,2.3-0.3,9.2,3.6,8.7c3.9-0.5,6.7-2.8,6.4-8.4c-0.3-5.6,2-10.2,5.9-11.3c3.9-1.1,10.8,6,9.5,13.1
		c-3,16.5,7,13.8,6.6,9.3c-0.5-4.4-2.2-18.9,0-22.5c2.3-3.6,6.2-9.4,10.9-2.5c6.1,8.9-0.9,24.3,4.3,32.7c1.5,2.3,7.1,0.2,6.5-3.1
		c-4.1-22.8,1.2-38.5,4.9-41.4c3.6-2.8,4,11.2,7,12.4c3.1,1.1,3.2,1,4.1-7.9C119.9,17.6,95.9,8.2,58.3,7.2z"/>
	<g>
		<path class="st2" d="M59,99.4c-25.7,0-47.5-6.2-50.9-14.1c3.7,13.8,24.7,20,50.3,20c26.2,0,47.3-6.6,50.8-20.1
			C105.4,93,84.2,99.4,59,99.4z"/>
	</g>
	<path class="st3" d="M11.7,20.7C-0.4,33,3.7,47.6,8.4,44.9c4.7-2.7,6.6-4,8.5,0.1c2.5,5.4,3.8,7.1,10.9,5.7
		C36,49,39,55.2,42.9,56.6c3.9,1.4,5.3,10,8.1,10.1c2.8,0.1,3.8-7.2,5.8-9.5c2-2.4,9.8-3.5,11.8,0.5c2,3.9,3.1,10.1,5,6
		C75.6,59.5,84,47.4,91,53.1c7,5.7,7.5-2.1,9.6-4.9c2.1-2.8,7.1-9.5,9.4-5.1c2.1,4.2,8.5-11.3-6.1-22.3C77.2,0.5,23.8,8.4,11.7,20.7
		z"/>
	<path class="st4" d="M107.4,28.7c0,10.4-22.2,18.8-49.5,18.8c-27.4,0-49.5-8.4-49.5-18.8c0-10.4,22.2-18.8,49.5-18.8
		C85.2,9.9,107.4,18.3,107.4,28.7z"/>
	<path class="st5" d="M55.2,46.9c0.1,1.3-17.6-0.3-30.3-4.2C16.2,40,6.8,32.1,8.5,30.1c1.7-2,3.6,5.8,18.4,10.8
		C38.8,44.9,55.1,45.6,55.2,46.9z"/>
	<path class="st6" d="M9.8,39.4c-0.6,1.4-2.3,2.1-3.1,1.5c-1.2-0.9-1.6-2.3-1-3.7c0.6-1.4,2.2-1.7,3.1-1.3
		C9.8,36.3,10.4,38,9.8,39.4z"/>
	<path class="st7" d="M8.7,68.2c2,0,0.6,11.6,6,16.1c10,8.4,28.8,8.1,28.5,11c-0.3,3-26.7-1.5-32.3-9.1C5.6,79.1,6.7,68.2,8.7,68.2z
		"/>
	<path class="st8" d="M61,36.4c-19.4,0-35.2-6.8-35.2-15.1c0-3.9,3.4-6.6,9.1-8.4c-11.4,2.7-19,7.5-19,12.9c0,8.4,18,15.2,40.3,15.2
		c20.7,0,37.8-5.9,40-13.5C89.1,32.7,74.8,36.4,61,36.4z"/>
	<g id="Layer_8">
		<path class="st9" d="M73.1,7.6c0,0-0.8-5.9,9.2-7.6c0,0-2,5.7-2.8,6.6c-0.7,0.9,3.5-1,9.4,1c0,0-4.5,4.2-6.6,4.4
			c0,0,0.8,2.3,6.6,3c0,0-6.9,7-12.6-0.1C70.5,7.8,72.5,10.2,73.1,7.6z"/>
		<path class="st10" d="M73.8,6.9c0,0,4.6-2.8,5.7-4.1c1.1-1.3-2.9,5.1-2,5.3c0.9,0.2,7,0.9,8.6,0c1.7-0.9-3,4.4-6.6,3.3
			c-3.6-1.1,3.5,5.3,5.6,4.6C87.3,15.4,73.9,21.6,73.8,6.9z"/>
		<path class="st11" d="M79.5,20c0,7.2-6.3,10.9-17.9,10.9c-11.6,0-25.7-1.6-25.7-8.8c0-7.2,14.1-20.3,25.7-20.3
			C73.2,1.7,79.5,12.7,79.5,20z"/>
		<path class="st12" d="M58.4,6.1c0.3,0.5-0.4,1.3-1.5,1.8c-1.1,0.5-2.2,0.4-2.5-0.1c-0.3-0.5,0.4-1.3,1.5-1.8
			C57,5.5,58.1,5.6,58.4,6.1z"/>
		<path class="st12" d="M56.6,13.7c0.3,0.5-0.3,1.2-1.3,1.6c-1,0.4-2,0.3-2.3-0.1c-0.3-0.5,0.3-1.2,1.3-1.6
			C55.3,13.1,56.4,13.2,56.6,13.7z"/>
		<path class="st12" d="M44.4,16.5c0.3,0.5-0.3,1.2-1.3,1.6c-1,0.4-2,0.3-2.3-0.1c-0.3-0.5,0.3-1.2,1.3-1.6
			C43.2,16,44.2,16,44.4,16.5z"/>
		<path class="st12" d="M57.4,20.6c0.3,0.5-0.3,1.2-1.3,1.6c-1,0.4-2,0.3-2.3-0.1c-0.3-0.5,0.3-1.2,1.3-1.6
			C56.1,20,57.1,20.1,57.4,20.6z"/>
		<path class="st12" d="M68.3,14.9c0.3,0.5-0.3,1.2-1.3,1.6c-1,0.4-2,0.3-2.3-0.1c-0.3-0.5,0.3-1.2,1.3-1.6
			C67,14.4,68.1,14.4,68.3,14.9z"/>
		<path class="st12" d="M50,10.2c0.3,0.5-0.3,1.2-1.3,1.6c-1,0.4-2,0.3-2.3-0.1c-0.3-0.5,0.3-1.2,1.3-1.6C48.7,9.7,49.7,9.7,50,10.2
			z"/>
		<path class="st12" d="M47.5,24c0.1,0.5-0.7,1.1-1.8,1.3c-1.1,0.2-2.1-0.1-2.2-0.7c-0.1-0.5,0.7-1.1,1.8-1.3
			C46.4,23.1,47.4,23.4,47.5,24z"/>
		<path class="st12" d="M67.7,24.2c0.3,0.5-0.3,1.2-1.3,1.6c-1,0.4-2,0.3-2.3-0.1c-0.3-0.5,0.3-1.2,1.3-1.6
			C66.4,23.6,67.4,23.7,67.7,24.2z"/>
		<path class="st12" d="M57.6,26.7c0.2,0.5-0.5,1.2-1.6,1.5c-1,0.3-2.1,0.1-2.2-0.4c-0.2-0.5,0.5-1.2,1.6-1.5
			C56.4,26,57.4,26.2,57.6,26.7z"/>
		<path class="st12" d="M75.5,17.5c0.4,0.2,0.2,1-0.3,1.8c-0.5,0.9-1.2,1.4-1.6,1.3c-0.4-0.2-0.2-1,0.3-1.8
			C74.5,17.9,75.2,17.3,75.5,17.5z"/>
		<path class="st13" d="M62.9,3.6c0,0,14.3,7.8,5.4,16.3c-8.8,8.5-30.2,4.3-30.6,0.8c-0.4-3.5-4.7,5.9,6.4,8.4
			c11.2,2.4,34.1,4.3,35.2-7.7C80.5,9.5,67.3,2.7,62.9,3.6z"/>
		<path class="st14" d="M68,13.6c0.4,4-3.2,6.3-10.3,6.9c-7,0.6-15.7,0.4-16.1-3.5C41.2,13,49,5.1,56.1,4.6C63.1,4,67.6,9.7,68,13.6
			z"/>
		<path class="st15" d="M60.9,11.1c0.2,2.4-1.9,3.8-6.1,4.1c-4.2,0.3-9.4,0.2-9.6-2.1c-0.3-2.4,4.4-7.1,8.6-7.4
			C58,5.4,60.7,8.8,60.9,11.1z"/>
	</g>
	<path class="st16" d="M106,68c0,1.1-0.4,2.1-1,2.1c-0.5,0-1-0.9-1-2.1c0-1.1,0.4-2.1,1-2.1C105.6,65.9,106,66.9,106,68z"/>
	<path class="st16" d="M104.7,77.1c0,0.6-0.5,1.1-1.1,1.1c-0.6,0-1.1-0.5-1.1-1.1c0-0.6,0.5-1.1,1.1-1.1
		C104.2,75.9,104.7,76.4,104.7,77.1z"/>
	<path class="st16" d="M90.9,73.2c0,0.6-0.5,1.1-1,1.1c-0.6,0-1-0.5-1-1.1c0-0.6,0.5-1,1-1C90.5,72.2,90.9,72.6,90.9,73.2z"/>
	<path class="st16" d="M86.2,69.9c0,0.2-0.1,0.3-0.3,0.3s-0.3-0.1-0.3-0.3c0-0.2,0.1-0.3,0.3-0.3S86.2,69.7,86.2,69.9z"/>
	<path class="st16" d="M87.9,78.2c0,0.6-0.5,1.2-1.2,1.2c-0.6,0-1.2-0.5-1.2-1.2c0-0.6,0.5-1.2,1.2-1.2
		C87.4,77.1,87.9,77.6,87.9,78.2z"/>
	<path class="st16" d="M86.6,73.8c0,0.3-0.2,0.5-0.5,0.5c-0.3,0-0.5-0.2-0.5-0.5c0-0.3,0.2-0.5,0.5-0.5
		C86.4,73.2,86.6,73.5,86.6,73.8z"/>
	<path class="st16" d="M90.9,69.6c0,0.3-0.2,0.5-0.5,0.5c-0.3,0-0.5-0.2-0.5-0.5c0-0.3,0.2-0.5,0.5-0.5
		C90.7,69.1,90.9,69.3,90.9,69.6z"/>
	<path class="st16" d="M69.4,94.3c0,0.6-0.5,1-1,1c-0.6,0-1-0.5-1-1c0-0.6,0.5-1,1-1C68.9,93.3,69.4,93.7,69.4,94.3z"/>
	<path class="st16" d="M69.4,89c0,0.4-0.3,0.7-0.7,0.7c-0.4,0-0.7-0.3-0.7-0.7c0-0.4,0.3-0.7,0.7-0.7C69.1,88.3,69.4,88.6,69.4,89z"
		/>
	<path class="st16" d="M71.3,92.1c0,0.3-0.2,0.5-0.5,0.5c-0.3,0-0.5-0.2-0.5-0.5c0-0.3,0.2-0.5,0.5-0.5
		C71.1,91.7,71.3,91.9,71.3,92.1z"/>
	<path class="st17" d="M37,77.9c0,0.5-0.4,0.9-0.9,0.9c-0.5,0-0.9-0.4-0.9-0.9s0.4-0.9,0.9-0.9C36.6,77.1,37,77.5,37,77.9z"/>
	<path class="st17" d="M37,82.6c0,0.2-0.2,0.4-0.4,0.4c-0.2,0-0.4-0.2-0.4-0.4c0-0.2,0.2-0.4,0.4-0.4C36.8,82.2,37,82.4,37,82.6z"/>
	<path class="st17" d="M40.4,79.1c0,0.5-0.4,0.9-0.9,0.9c-0.5,0-0.9-0.4-0.9-0.9c0-0.5,0.4-0.8,0.9-0.8C40,78.2,40.4,78.6,40.4,79.1
		z"/>
	<path class="st17" d="M34.3,81.1c0,0.6-0.5,1-1,1c-0.6,0-1-0.5-1-1c0-0.6,0.5-1,1-1C33.8,80,34.3,80.5,34.3,81.1z"/>
	<path class="st17" d="M39.7,87.4c0,0.5-0.4,0.9-0.9,0.9c-0.5,0-0.9-0.4-0.9-0.9c0-0.5,0.4-0.9,0.9-0.9C39.3,86.6,39.7,87,39.7,87.4
		z"/>
	<path class="st17" d="M12.3,67.3c0,0.4-0.3,0.7-0.7,0.7c-0.4,0-0.7-0.3-0.7-0.7c0-0.4,0.3-0.7,0.7-0.7C12,66.7,12.3,67,12.3,67.3z"
		/>
	<path class="st17" d="M12.9,71.2c0,0.5-0.4,1-1,1c-0.5,0-1-0.4-1-1c0-0.5,0.4-1,1-1C12.5,70.2,12.9,70.7,12.9,71.2z"/>
	<path class="st17" d="M10.4,66.4c0,0.3-0.2,0.5-0.5,0.5c-0.3,0-0.5-0.2-0.5-0.5c0-0.3,0.2-0.5,0.5-0.5
		C10.1,65.9,10.4,66.2,10.4,66.4z"/>
</g>
<g id="Layer_9">
	<g id="Layer_11">
	</g>
	<g id="Layer_10">
	</g>
</g>
<g id="Layer_14">
	<g id="Layer_12">
	</g>
	<g id="Layer_13">
	</g>
</g>
<g id="Layer_59">
	<g id="Layer_56">
	</g>
	<g id="Layer_58">
	</g>
	<g id="Layer_42" class="st18">
	</g>
	<g id="Layer_57">
	</g>
</g>
<g id="Layer_24">
	<g id="Layer_23">
		<g id="Layer_21">
		</g>
		<g id="Layer_22">
		</g>
	</g>
	<g id="Layer_20">
		<g id="Layer_18">
		</g>
		<g id="Layer_19">
		</g>
	</g>
	<g id="Layer_17">
		<g id="Layer_15">
		</g>
		<g id="Layer_16">
		</g>
	</g>
</g>
<g id="Layer_55">
	<g id="Layer_43">
	</g>
	<g id="Layer_44">
	</g>
	<g id="Layer_54">
		<g id="Layer_45">
		</g>
		<g id="Layer_46">
		</g>
		<g id="Layer_49">
		</g>
		<g id="Layer_53">
		</g>
		<g id="Layer_50">
		</g>
		<g id="Layer_51">
		</g>
		<g id="Layer_52">
		</g>
		<g id="Layer_48">
		</g>
		<g id="Layer_47">
		</g>
	</g>
</g>
<g id="Layer_3">
</g>
<g id="Layer_31">
	<g id="Layer_30">
	</g>
	<g id="Layer_25">
	</g>
	<g id="Layer_29">
	</g>
	<g id="Layer_28">
	</g>
	<g id="Layer_26">
		<g id="Layer_27">
		</g>
	</g>
</g>
<g id="Layer_38">
	<g id="Layer_36">
	</g>
	<g id="Layer_37">
	</g>
</g>
<g id="Layer_35">
	<g id="Layer_32">
	</g>
	<g id="Layer_33">
	</g>
</g>
<g id="Layer_41">
	<g id="Layer_39">
	</g>
	<g id="Layer_40" class="st18">
	</g>
</g>
</svg>
